<svg xmlns="http://www.w3.org/2000/svg" width="300" height="76.504" viewBox="0 0 300 76.504">
  <g id="Слой_x0020_1" transform="translate(-11191.231 -6769.013)">
    <path id="Контур_1" data-name="Контур 1" d="M11228.108,6821.286a9.5,9.5,0,1,1,2.669,18.821,9.644,9.644,0,0,1-10.756-8.169,9.449,9.449,0,0,1,2.029-7.2A9.3,9.3,0,0,1,11228.108,6821.286Zm91.556-.472a36.225,36.225,0,0,0,5.33-.012l-.012-27.022a36.346,36.346,0,0,0-5.34-.012Zm78.668-22.992c.895,0,.914.063.914-.842l-.016-3.218c-2.494-.216-15.7-.041-19.337-.059l-.991.023c-.085,8.679.08,17.546-.016,26.179l.039.953.482.018c5.969.107,13.07,0,19.166,0,1.588,0,1.229.1,1.225-1.577a20.821,20.821,0,0,0-.047-2.64l-14.764-.013c-1.1,0-.854-.082-.854-1.229l.029-6.428,12.833-.025c.771,0,1.03.186,1.063-.569.022-.523-.014-1.17-.014-1.711,0-1.881.463-1.9-1.291-1.9-3.733,0-9.054.134-12.6-.058l-.016-1.2c-.043-6.463-.387-5.708,1.338-5.708Zm73.641,12.732a13.679,13.679,0,0,1,1.044-3.316l2.981-7.941c.649-1.653.734-2.025,1.5.167l4.055,10.7c0,.018.008.058.009.074l-.03.193C11481.275,6810.711,11472.295,6810.551,11471.973,6810.555Zm-2.273,5.624c.225-.521.367-1.052.57-1.483l11.276-.008c2.14,0,1.628-.083,2.126,1.144.606,1.491,1.211,3.447,1.893,5.043l5.667-.025a23.208,23.208,0,0,0-1.315-3.5c-1.268-3.155-2.967-7.073-4.072-10.105l-2.7-6.77c-1.088-2.339-1.9-5.159-2.688-6.768l-7.4.038-1.4,3.4c-.433,1.093-.984,2.269-1.358,3.375-.887,2.624-2.87,7.248-4.063,10.12-.5,1.208-.85,2.264-1.332,3.423-.44,1.057-2.584,5.967-2.642,6.813l5.675-.04Zm-176.295.919c-4.118.012-7.169-.7-7.17-5.073,0-2.42-.293-10.312.35-11.923.607-1.524,1.887-2.176,3.742-2.467,2.328-.366,8.632-.877,10.025,1.629a4.378,4.378,0,0,1,.5,2.57c-.018,1.779-.28,1.527,1.406,1.527,4.245,0,3.636.479,3.631-1.77-.014-6.966-4.264-8.376-11.152-8.375-9.016,0-13.854.995-13.854,10.559,0,11.1-1.485,17.557,12.278,17.541,4,0,8.139-.081,10.658-2.636,2.264-2.3,2.26-5.23,2.2-9.26l-5.1.05c0,2.492.359,5.532-1.64,6.616C11297.34,6817.136,11295.709,6817.1,11293.4,6817.1Zm50.309-17.613c.482.224.719.654,1.1,1.268l8.056,12.091c.928,1.207,2.79,4.141,3.6,5.39l1.861,2.609,6.817-.023-.007-27.077-4.9.056-.033,21.479c-.391-.182-.77-.873-1.007-1.226l-6.368-9.535c-2.1-3.046-5.193-8-7.258-10.811l-6.906.046.026,27.124,5.011-.06Zm90.186,21.389c1.252-2.292,5.148-10.328,6.581-13.426l3.294-6.643c.174-.355.4-1,.742-1.137l0,4.227c.015,4.857-.172,12.479.036,16.967l.477.015c5.464.089,4.638.179,4.637-1.092v-25.109c0-.873.217-.97-.633-.97l-7.03.02c-.208.457-.431.92-.681,1.384l-.68,1.368c-1.543,3.32-3.152,6.5-4.621,9.838l-2.024,4.133c-.375.852-.839,1.843-1.347,2.775a20.4,20.4,0,0,1-1.328,2.66c-.443-.344-4.832-9.845-5.413-11.062-.937-1.961-1.79-3.687-2.663-5.6-.473-1.035-.854-1.829-1.332-2.8a15.675,15.675,0,0,0-1.363-2.621,65.888,65.888,0,0,0-7.637-.054c-.043,8.732-.131,18.446.016,27.09a47.081,47.081,0,0,0,5.129-.024l.015-20.971c.439.133.339.081.563.6.129.3.193.439.3.667l2.008,4.058c.721,1.582,1.746,3.507,2.648,5.36l4.018,8.1c1.045,2.04.755,2.246,1.768,2.246l4.515,0Zm-218.406-12.37a12.7,12.7,0,0,1-.475,1.772,7.338,7.338,0,0,1-.742,1.592,4.015,4.015,0,0,1-.942,1.354c-.347.347-.259.405-.51.71-.327.4-.312.2-.651.449-.244.179-.4.431-.611.586a11.057,11.057,0,0,1-4.036,1.647,6.411,6.411,0,0,1-2.022.118,9.217,9.217,0,0,1-3.562-1.067,7.7,7.7,0,0,1-2.648-1.961,9.718,9.718,0,0,1-2.092-3.474,7.649,7.649,0,0,1-.45-4.009c.091-.35.062-.568.151-.936a12.931,12.931,0,0,1,1.678-3.555l1.369-1.525a7.293,7.293,0,0,1,.64-.459c1.679-1.324,2.845-1.459,4.923-1.891,1.4-.291,4.18.563,5.455,1.384l1.973,1.542,1.376,2.02C11215.633,6805.142,11215.492,6806.088,11215.492,6808.5Zm12.764-33.866a9.14,9.14,0,0,1,4.176.342,12.651,12.651,0,0,1,3.713,2.248c.072.067.338.5.518.683a8.6,8.6,0,0,1,2.131,4.946,9,9,0,0,1-.437,4.169,10.069,10.069,0,0,1-2.348,3.648c-1.127.757-.959,1.219-3.631,2.161a7.883,7.883,0,0,1-5.584.051c-.035-.014-.133-.057-.168-.071l-1.079-.387a9.214,9.214,0,0,1-4.265-3.969c-.543-1.288-.194.352-1.033-2.6l-.308-1.966c.014-.519.153-.305.2-.979a5.836,5.836,0,0,1,.451-1.814,9.168,9.168,0,0,1,6.668-6.323C11227.58,6774.689,11227.994,6774.714,11228.256,6774.638Zm-.469,35.928a6.356,6.356,0,0,1-1.69-2.325,3.544,3.544,0,0,1,.209-2.431c1.425-2.247,3.55-2.6,5.71-.988a3.631,3.631,0,0,1,.295,4.688,3.792,3.792,0,0,1-1.99,1.277C11228.922,6811.135,11228.371,6810.511,11227.787,6810.565Zm12.643-39.751-6.7-1.545a4.294,4.294,0,0,1-1.438-.107c-1.772-.491-9.768.333-11.729.859-.309.083-.809.232-1.256.344a43.16,43.16,0,0,0-4.161,1.46l-1.657.666c-.8.391-1.437.7-2.2,1.088a40.2,40.2,0,0,0-4.873,3.132c-.135.1-.279.237-.474.374a4.466,4.466,0,0,0-.44.292l-.863.712c-.475.339-1.089,1.111-1.6,1.553-1.306,1.136-.205.077-1.216,1.214-.149.169-.264.256-.428.42-.233.237-.514.481-.795.776l-2.125,2.738a39.386,39.386,0,0,0-4.111,7.036,48.022,48.022,0,0,0-2.333,7.258,20.457,20.457,0,0,0-.378,2.867l-.42,2.664-.007,4.865c.009.813.181.7.218,1.328a13.053,13.053,0,0,0,.279,2.938c.146.914.343,1.707.5,2.617a6.823,6.823,0,0,0,.6,1.826l.294.551c-.1,1.126,2.45,6.329,3.036,7.324.617,1.049,1.385,2.174,2.044,3.162a30.593,30.593,0,0,0,2.239,2.851l2.479,2.74c5.109,4.552,9.743,7.438,16.5,9.336a38.122,38.122,0,0,0,8.965,1.33c6.861.069,13.758,0,20.623,0l242.224,0v-7.71h-207.9c-10.138,0-20.354.122-30.481-.01.1-.418.068-.334.424-.615a37.7,37.7,0,0,0,10.331-12.592,38.424,38.424,0,0,0,3.168-25.708,44.227,44.227,0,0,0-2.622-7.678c-.378-.773-.71-1.625-1.118-2.291a38.332,38.332,0,0,0-5.76-7.819,40.124,40.124,0,0,0-7.447-6.14C11248.436,6773.945,11241.765,6770.607,11240.43,6770.814Zm11.177,27.039c7.858-1.428,14.286,8.549,8.613,15.434a10.294,10.294,0,0,1-2.552,2.187,9.515,9.515,0,0,1-13.043-3.445c-2.157-3.9-1.561-7.431.891-10.786A9.492,9.492,0,0,1,11251.606,6797.854Z" transform="translate(0 0.001)" fill="#fff" fill-rule="evenodd"/>
  </g>
</svg>
